<svg width="20" height="21" viewBox="0 0 20 21" fill="none" xmlns="http://www.w3.org/2000/svg">
<g clip-path="url(#clip0_65_1239)">
<path d="M2.49979 20.5H17.5008C18.2742 20.5 18.9007 19.8734 18.9007 19.1001V15.0622C18.9007 14.6656 18.7342 14.2875 18.4393 14.0222C16.2019 12.0127 13.2435 10.7907 9.99997 10.7907C6.75648 10.7907 3.79733 12.0134 1.56068 14.0229C1.26576 14.2875 1.09924 14.6663 1.09924 15.0622V19.0994C1.09924 19.8727 1.72649 20.5 2.49979 20.5ZM1.94663 15.0629C1.94663 14.9055 2.01225 14.7559 2.12725 14.6529C4.29193 12.7084 7.0881 11.6381 10.0007 11.6381C12.9133 11.6381 15.7094 12.7084 17.8741 14.6522C17.9891 14.7552 18.0547 14.9048 18.0547 15.0622V19.1001C18.0547 19.4049 17.8064 19.6533 17.5016 19.6533H2.49979C2.19499 19.6533 1.94663 19.4049 1.94663 19.1001V15.0629Z" fill="black"/>
<path d="M10 9.84523C12.5803 9.84523 14.6723 7.75323 14.6723 5.17297C14.6723 2.59271 12.581 0.5 10 0.5C7.41906 0.5 5.32776 2.59201 5.32776 5.17226C5.32776 7.75252 7.41976 9.84523 10 9.84523ZM10 1.34668C12.1097 1.34668 13.8256 3.06262 13.8256 5.17226C13.8256 7.28191 12.1097 8.99785 10 8.99785C7.89038 8.99785 6.17444 7.28191 6.17444 5.17226C6.17444 3.06262 7.89038 1.34668 10 1.34668Z" fill="black"/>
</g>
<defs>
<clipPath id="clip0_65_1239">
<rect width="20" height="20" fill="white" transform="translate(0 0.5)"/>
</clipPath>
</defs>
</svg>
