<svg width="20" height="21" viewBox="0 0 20 21" fill="none" xmlns="http://www.w3.org/2000/svg">
<g clip-path="url(#clip0_65_1237)">
<path d="M2.98737 20.5H17.0126C17.7859 20.5 18.4125 19.8735 18.4125 19.1002V8.01147C18.4125 7.23816 17.7859 6.61162 17.0126 6.61162H14.4585V4.95848C14.4585 2.50028 12.4582 0.5 10 0.5C7.5418 0.5 5.54152 2.50028 5.54152 4.95848V6.61162H2.98737C2.21407 6.61162 1.58752 7.23816 1.58752 8.01147V19.1002C1.58752 19.8735 2.21407 20.5 2.98737 20.5ZM6.3882 4.95848C6.3882 2.96666 8.00818 1.34668 10 1.34668C11.9918 1.34668 13.6118 2.96737 13.6118 4.95848V6.61162H6.3875L6.3882 4.95848Z" fill="black"/>
</g>
<defs>
<clipPath id="clip0_65_1237">
<rect width="20" height="20" fill="white" transform="translate(0 0.5)"/>
</clipPath>
</defs>
</svg>
