<svg width="15" height="11" viewBox="0 0 15 11" fill="none" xmlns="http://www.w3.org/2000/svg">
<path d="M4.88662 1.35822C4.88662 1.65488 5.12739 1.89564 5.42404 1.89564H9.1215C9.41816 1.89564 9.65892 1.65488 9.65892 1.35822C9.65892 1.06157 9.41816 0.820801 9.1215 0.820801H5.42404C5.12739 0.820801 4.88662 1.06157 4.88662 1.35822ZM3.30589 4.22447C3.30589 4.52113 3.54665 4.76189 3.84331 4.76189H10.7194C11.0161 4.76189 11.2569 4.52113 11.2569 4.22447C11.2569 3.92781 11.0161 3.68705 10.7194 3.68705H3.84331C3.54665 3.68705 3.30589 3.92781 3.30589 4.22447ZM1.55031 7.09072C1.55031 7.38737 1.79108 7.62814 2.08773 7.62814H12.4779C12.7745 7.62814 13.0153 7.38737 13.0153 7.09072C13.0153 6.79406 12.7745 6.5533 12.4779 6.5533H2.08773C1.79108 6.5533 1.55031 6.79406 1.55031 7.09072ZM0.117188 9.95696C0.117188 10.2536 0.357952 10.4944 0.654609 10.4944H13.911C14.2077 10.4944 14.4484 10.2536 14.4484 9.95696C14.4484 9.66031 14.2077 9.41954 13.911 9.41954H0.654609C0.357952 9.41954 0.117188 9.66031 0.117188 9.95696Z" fill="black"/>
</svg>
