<svg width="20" height="21" viewBox="0 0 20 21" fill="none" xmlns="http://www.w3.org/2000/svg">
<g clip-path="url(#clip0_65_1242)">
<path d="M13.4996 13.5614C13.4996 13.5614 13.4968 13.5593 13.4954 13.5579C14.7767 12.1707 15.5606 10.3172 15.5606 8.27958C15.5606 3.98338 12.0772 0.5 7.78028 0.5C3.48338 0.5 0 3.98338 0 8.28028C0 12.5772 3.48338 16.0606 7.78028 16.0606C9.73608 16.0606 11.5226 15.3387 12.89 14.1471C12.8943 14.1513 12.8971 14.1562 12.9013 14.1605L18.9191 20.1782C19.0016 20.2608 19.1103 20.3024 19.2183 20.3024C19.3262 20.3024 19.4348 20.2608 19.5174 20.1782C19.6825 20.0132 19.6825 19.7451 19.5174 19.5792L13.4996 13.5614ZM7.78028 15.2132C3.95682 15.2132 0.846683 12.1031 0.846683 8.27958C0.846683 4.45612 3.95682 1.34668 7.78028 1.34668C11.6038 1.34668 14.7139 4.45682 14.7139 8.28028C14.7139 12.1037 11.6038 15.2132 7.78028 15.2132Z" fill="black"/>
</g>
<defs>
<clipPath id="clip0_65_1242">
<rect width="20" height="20" fill="white" transform="translate(0 0.5)"/>
</clipPath>
</defs>
</svg>
