<svg width="10" height="11" viewBox="0 0 10 11" fill="none" xmlns="http://www.w3.org/2000/svg">
<path d="M4.54282 5.07968H0.535188C0.306338 5.07968 0.120605 5.26541 0.120605 5.49426C0.120605 5.72311 0.306338 5.90884 0.535188 5.90884H4.54282V9.91647C4.54282 10.1453 4.72855 10.3311 4.9574 10.3311C5.18625 10.3311 5.37198 10.1453 5.37198 9.91647V5.90884H9.37961C9.60846 5.90884 9.79419 5.72311 9.79419 5.49426C9.79419 5.26541 9.60846 5.07968 9.37961 5.07968H5.37198V1.07205C5.37198 0.843204 5.18625 0.657471 4.9574 0.657471C4.72855 0.657471 4.54282 0.843204 4.54282 1.07205V5.07968Z" fill="black"/>
</svg>
