<svg id="Warstwa_1" data-name="Warstwa 1" xmlns="http://www.w3.org/2000/svg" viewBox="0 0 8192.98 8193"><defs><style>.cls-1{fill:#fff;stroke:#1d1d1b;stroke-miterlimit:10;}</style></defs><path class="cls-1" d="M6411.11,0H1780.86C801.37,0,0,801.39,0,1780.89V6411.14C0,7390.61,801.37,8192,1780.86,8192H6411.11C7390.61,8192,8192,7390.61,8192,6411.14V1780.89C8192,801.39,7390.61,0,6411.11,0Zm85,3541.58c0,75.65-55.24,66.23-103.09,65-400.18-10.35-767.83-128.4-1108.26-336.06-25-15.25-50.5-29.69-97.62-57.32v128.49q-.12,855.08-.35,1710.14c-1,887.33-576.72,1592.65-1445.37,1758.92-1042.66,199.58-1951.1-603.32-2037.08-1529C1615.55,4326,2232,3528,3178.3,3374.59c138.14-22.4,282-12.6,423.16-10.12,24.33.42,68.36,38.52,68.88,60.06,7.16,294.09,8.33,588.33,10.42,882.54,0,6.47-6.45,13-17.1,33-216.21-49-421.92-36-618.4,71.08-452,246.29-531.85,887.67-154.86,1238.4,249.25,231.9,534,292.47,844.79,163.15,326.06-135.68,482.35-397.53,482.8-748.38q2.33-1782.79.63-3565.6V1350.53H5161c93.13,779.24,578,1169.52,1335.16,1334.69C6496.12,2955.73,6496.18,3248.66,6496.08,3541.58Z" transform="translate(0.5 0.5)"/></svg>